<svg version="1.1" xmlns="http://www.w3.org/2000/svg" xmlns:xlink="http://www.w3.org/1999/xlink" width="500" height="500"><defs><clipPath id="clip-1"><rect x="26.06598" y="80.3299" transform="scale(1.91821,1.91821)" width="100" height="100" fill-rule="nonzero"></rect></clipPath></defs><g data-paper-data="{&quot;description&quot;:&quot;Logo for 0840\n=============\n\nThis logo was generated by MarkMaker at http://emblemmatic.org/markmaker/ and may be composed of elements designed by others.\n\nThe font is Amaranth designed by Gesine Todt and released under the OFL license via Google Fonts: https://www.google.com/fonts/specimen/Amaranth. The font includes this copyright statement: Copyright (c) 2011 by Gesine Todt (hallo@gesine-todt.de). All rights reserved.\n\nThe symbol is 'organic' designed by Sina &amp; Marie and released into the public domain at the Noun Project: https://thenounproject.com/term/organic/27054.\n\nMarkMaker uses semantic data from the Princeton University WordNet database http://wordnet.princeton.edu and font descriptions from Google Fonts https://www.google.com/fonts.&quot;}" fill="#222934" fill-rule="none" stroke="none" stroke-width="1" stroke-linecap="butt" stroke-linejoin="miter" stroke-miterlimit="10" stroke-dasharray="" stroke-dashoffset="0" font-family="none" font-weight="none" font-size="none" text-anchor="none" style="mix-blend-mode: normal"><g data-paper-data="{&quot;elementType&quot;:&quot;logo&quot;}" fill-rule="nonzero"><g data-paper-data="{&quot;elementType&quot;:&quot;text&quot;}"><g data-paper-data="{&quot;baseline&quot;:64.2,&quot;elementType&quot;:&quot;row&quot;}"><g data-paper-data="{&quot;baselineProportion&quot;:0.9907407407407408,&quot;fontSize&quot;:100,&quot;baseline&quot;:64.2,&quot;elementType&quot;:&quot;word&quot;}"><path d="M279.06282,222.15503c3.55224,0 6.57451,0.60159 9.0668,1.80477c2.4923,1.20318 4.54056,2.95065 6.1448,5.24242c1.60424,2.29177 2.76444,5.12783 3.48062,8.50819c0.71618,3.38036 1.07427,7.21907 1.07427,11.51613c0,4.29706 -0.38674,8.19307 -1.16021,11.68801c-0.77347,3.49494 -2.0053,6.50289 -3.69547,9.02383c-1.69018,2.52094 -3.85303,4.46895 -6.48857,5.84401c-2.63553,1.37506 -5.81536,2.06259 -9.53948,2.06259c-3.55224,0 -6.57451,-0.60159 -9.0668,-1.80477c-2.4923,-1.20318 -4.54056,-2.96497 -6.1448,-5.28539c-1.60424,-2.32041 -2.76444,-5.1708 -3.48062,-8.55116c-0.71618,-3.38036 -1.07427,-7.24771 -1.07427,-11.60207c0,-4.29706 0.38674,-8.19307 1.16021,-11.68801c0.77347,-3.49494 2.0053,-6.48857 3.69547,-8.98086c1.69018,-2.4923 3.85303,-4.41165 6.48857,-5.75806c2.63553,-1.34641 5.81536,-2.01962 9.53948,-2.01962M277.94558,229.63192c-1.77612,0 -3.25144,0.47268 -4.42598,1.41803c-1.17453,0.94535 -2.10556,2.29177 -2.79309,4.03924c-0.68753,1.74747 -1.17453,3.85303 -1.461,6.31668c-0.28647,2.46365 -0.42971,5.21377 -0.42971,8.25036c0,2.86471 0.12891,5.55754 0.38674,8.07848c0.25782,2.52094 0.74482,4.71245 1.461,6.57451c0.71618,1.86206 1.73315,3.33739 3.05092,4.42598c1.31777,1.08859 3.06524,1.63288 5.24242,1.63288c1.77612,0 3.25144,-0.487 4.42598,-1.461c1.17453,-0.974 2.10556,-2.33474 2.79309,-4.08221c0.68753,-1.74747 1.17453,-3.85303 1.461,-6.31668c0.28647,-2.46365 0.42971,-5.21377 0.42971,-8.25036c0,-2.86471 -0.11459,-5.54321 -0.34377,-8.03551c-0.22918,-2.4923 -0.71618,-4.66948 -1.461,-6.53154c-0.74482,-1.86206 -1.77612,-3.33739 -3.09389,-4.42598c-1.31777,-1.08859 -3.06524,-1.63288 -5.24242,-1.63288z" data-paper-data="{&quot;elementType&quot;:&quot;letter&quot;,&quot;baseline&quot;:64.2,&quot;baselineProportion&quot;:0.9907407407407408,&quot;fontSize&quot;:100}"></path><path d="M329.33846,277.84497c-2.46365,0 -4.79839,-0.28647 -7.00421,-0.85941c-2.20583,-0.57294 -4.12518,-1.44668 -5.75806,-2.62121c-1.63288,-1.17453 -2.93633,-2.64986 -3.91033,-4.42598c-0.974,-1.77612 -1.461,-3.86736 -1.461,-6.27371c0,-1.71883 0.30079,-3.29442 0.90238,-4.72677c0.60159,-1.43235 1.40371,-2.7358 2.40636,-3.91033c1.00265,-1.17453 2.13421,-2.2488 3.39468,-3.2228c1.26047,-0.974 2.54959,-1.86206 3.86736,-2.66418c-2.57824,-1.48965 -4.74109,-3.38036 -6.48857,-5.67212c-1.74747,-2.29177 -2.62121,-4.98459 -2.62121,-8.07848c0,-1.77612 0.42971,-3.4663 1.28912,-5.07053c0.85941,-1.60424 2.06259,-3.00794 3.60953,-4.21112c1.54694,-1.20318 3.36603,-2.16286 5.45727,-2.87903c2.09124,-0.71618 4.34003,-1.07427 6.74639,-1.07427c2.23447,0 4.34003,0.32944 6.31668,0.98832c1.97665,0.65888 3.68115,1.56127 5.11351,2.70715c1.43235,1.14588 2.56391,2.50662 3.39468,4.08221c0.83077,1.57559 1.24615,3.28009 1.24615,5.11351c0,1.48965 -0.2435,2.87903 -0.7305,4.16815c-0.487,1.28912 -1.14588,2.4923 -1.97665,3.60953c-0.83077,1.11724 -1.77612,2.14853 -2.83606,3.09389c-1.05994,0.94535 -2.16286,1.81909 -3.30874,2.62121c1.37506,0.74482 2.69283,1.63288 3.9533,2.66418c1.26047,1.0313 2.39203,2.17718 3.39468,3.43765c1.00265,1.26047 1.80477,2.60689 2.40636,4.03924c0.60159,1.43235 0.90238,2.922 0.90238,4.46895c0,2.23447 -0.47268,4.25409 -1.41803,6.05886c-0.94535,1.80477 -2.23447,3.35171 -3.86736,4.64083c-1.63288,1.28912 -3.56656,2.27744 -5.80104,2.96497c-2.23447,0.68753 -4.64083,1.0313 -7.21907,1.0313M321.43186,263.3209c0,2.11988 0.74482,3.93897 2.23447,5.45727c1.48965,1.5183 3.60953,2.27744 6.35965,2.27744c2.11988,0 3.83871,-0.75915 5.15648,-2.27744c1.31777,-1.5183 1.97665,-3.28009 1.97665,-5.28539c0,-1.08859 -0.2435,-2.14853 -0.7305,-3.17983c-0.487,-1.0313 -1.08859,-2.0053 -1.80477,-2.922c-0.71618,-0.91671 -1.5183,-1.77612 -2.40636,-2.57824c-0.88806,-0.80212 -1.7618,-1.5183 -2.62121,-2.14853c-1.08859,0.63024 -2.13421,1.30344 -3.13686,2.01962c-1.00265,0.71618 -1.87638,1.50397 -2.62121,2.36338c-0.74482,0.85941 -1.33209,1.80477 -1.7618,2.83606c-0.42971,1.0313 -0.64456,2.17718 -0.64456,3.43765M335.61217,235.13216c0,-1.77612 -0.54429,-3.25144 -1.63288,-4.42598c-1.08859,-1.17453 -2.60689,-1.7618 -4.55489,-1.7618c-2.0053,0 -3.60953,0.51565 -4.81271,1.54694c-1.20318,1.0313 -1.80477,2.52094 -1.80477,4.46895c0,1.20318 0.20053,2.30609 0.60159,3.30874c0.40106,1.00265 0.91671,1.91935 1.54694,2.75012c0.63024,0.83077 1.33209,1.54694 2.10556,2.14853c0.77347,0.60159 1.56127,1.13156 2.36338,1.58991c1.66153,-0.91671 3.10821,-2.09124 4.34003,-3.52359c1.23182,-1.43235 1.84774,-3.4663 1.84774,-6.10183z" data-paper-data="{&quot;elementType&quot;:&quot;letter&quot;,&quot;baseline&quot;:64.2,&quot;baselineProportion&quot;:0.9907407407407408,&quot;fontSize&quot;:100}"></path><path d="M381.93452,262.20366h-24.06355v-5.50024l15.64131,-34.11868h10.05513l-15.03972,32.22798h13.40684v-17.53202l9.71136,-1.71883v19.25084h8.3363l-1.37506,7.39095h-6.96124v15.12566h-9.71136z" data-paper-data="{&quot;elementType&quot;:&quot;letter&quot;,&quot;baseline&quot;:63.7,&quot;baselineProportion&quot;:1,&quot;fontSize&quot;:100}"></path><path d="M430.23351,222.15503c3.55224,0 6.57451,0.60159 9.0668,1.80477c2.4923,1.20318 4.54056,2.95065 6.1448,5.24242c1.60424,2.29177 2.76444,5.12783 3.48062,8.50819c0.71618,3.38036 1.07427,7.21907 1.07427,11.51613c0,4.29706 -0.38674,8.19307 -1.16021,11.68801c-0.77347,3.49494 -2.0053,6.50289 -3.69547,9.02383c-1.69018,2.52094 -3.85303,4.46895 -6.48857,5.84401c-2.63553,1.37506 -5.81536,2.06259 -9.53948,2.06259c-3.55224,0 -6.57451,-0.60159 -9.0668,-1.80477c-2.4923,-1.20318 -4.54056,-2.96497 -6.1448,-5.28539c-1.60424,-2.32041 -2.76444,-5.1708 -3.48062,-8.55116c-0.71618,-3.38036 -1.07427,-7.24771 -1.07427,-11.60207c0,-4.29706 0.38674,-8.19307 1.16021,-11.68801c0.77347,-3.49494 2.0053,-6.48857 3.69547,-8.98086c1.69018,-2.4923 3.85303,-4.41165 6.48857,-5.75806c2.63553,-1.34641 5.81536,-2.01962 9.53948,-2.01962M429.11627,229.63192c-1.77612,0 -3.25144,0.47268 -4.42598,1.41803c-1.17453,0.94535 -2.10556,2.29177 -2.79309,4.03924c-0.68753,1.74747 -1.17453,3.85303 -1.461,6.31668c-0.28647,2.46365 -0.42971,5.21377 -0.42971,8.25036c0,2.86471 0.12891,5.55754 0.38674,8.07848c0.25782,2.52094 0.74482,4.71245 1.461,6.57451c0.71618,1.86206 1.73315,3.33739 3.05092,4.42598c1.31777,1.08859 3.06524,1.63288 5.24242,1.63288c1.77612,0 3.25144,-0.487 4.42598,-1.461c1.17453,-0.974 2.10556,-2.33474 2.79309,-4.08221c0.68753,-1.74747 1.17453,-3.85303 1.461,-6.31668c0.28647,-2.46365 0.42971,-5.21377 0.42971,-8.25036c0,-2.86471 -0.11459,-5.54321 -0.34377,-8.03551c-0.22918,-2.4923 -0.71618,-4.66948 -1.461,-6.53154c-0.74482,-1.86206 -1.77612,-3.33739 -3.09389,-4.42598c-1.31777,-1.08859 -3.06524,-1.63288 -5.24242,-1.63288z" data-paper-data="{&quot;elementType&quot;:&quot;letter&quot;,&quot;baseline&quot;:64.2,&quot;baselineProportion&quot;:0.9907407407407408,&quot;fontSize&quot;:100}"></path></g></g></g></g><g clip-path="url(#clip-1)" data-paper-data="{&quot;elementType&quot;:&quot;emblem&quot;}"><g><path d="M148.90286,295.28316c0.10742,-1.0109 0.20141,-2.01987 0.31075,-3.02885c6.54493,0.71166 13.06684,1.48086 19.61177,2.1177c3.30891,0.33569 6.7003,0.90348 9.96126,0.55628c4.96816,-0.52559 8.57631,-4.52506 8.96763,-9.04819c0.4316,-5.06791 -2.39776,-7.91837 -6.87678,-9.08656c-3.58513,-0.94568 -7.3218,-1.38878 -11.01244,-1.78202c-15.30155,-1.64199 -30.60119,-3.33768 -45.92384,-4.6459c-4.47902,-0.3894 -9.80588,-0.96678 -13.4735,0.96294c-14.40383,7.57693 -28.33003,16.05157 -42.35214,24.35166c-3.71557,2.19251 -6.46245,5.32111 -6.426,10.09937c0.04796,7.54432 -0.4527,15.12124 0.15537,22.6176c0.64452,7.92412 7.10696,11.6723 14.42685,8.60317c4.58836,-1.92972 8.86404,-4.69961 13.09178,-7.38127c10.08019,-6.41641 20.50566,-10.155 32.98936,-9.5335c19.22813,0.95527 38.54258,0.01343 57.82058,0.36062c8.37298,0.15537 15.4435,-1.50388 21.77551,-7.458c6.97461,-6.55836 14.75103,-12.2516 22.10736,-18.41289c4.49053,-3.76161 5.61268,-10.61345 2.57999,-14.53235c-2.62795,-3.38564 -9.38963,-4.01865 -13.78233,-0.82867c-3.02502,2.2021 -5.63762,5.00269 -8.30009,7.66708c-9.51048,9.52199 -20.02035,15.58737 -34.40308,13.32196c-7.32372,-1.14517 -14.60908,-1.58636 -21.248,-4.92021z" fill-rule="nonzero"></path><path d="M148.90286,295.28316c6.63892,3.33193 13.9262,3.77504 21.24608,4.92404c14.38273,2.2654 24.8926,-3.79997 34.40308,-13.32196c2.66247,-2.66439 5.27508,-5.46498 8.30009,-7.66708c4.3927,-3.18998 11.15247,-2.55697 13.78233,0.82867c3.03269,3.9189 1.91054,10.77074 -2.57999,14.53235c-7.35633,6.16129 -15.13467,11.85453 -22.10736,18.41289c-6.33201,5.95412 -13.40061,7.61337 -21.77551,7.458c-19.278,-0.3472 -38.59053,0.59656 -57.82058,-0.36062c-12.48179,-0.6215 -22.90725,3.11709 -32.98936,9.5335c-4.22773,2.67974 -8.50342,5.45155 -13.09178,7.38127c-7.31989,3.06913 -13.78233,-0.67905 -14.42685,-8.60317c-0.60807,-7.49636 -0.10742,-15.07329 -0.15537,-22.6176c-0.03645,-4.77634 2.71235,-7.90686 6.426,-10.09937c14.02211,-8.30009 27.94831,-16.77474 42.35214,-24.35166c3.66762,-1.92972 8.99256,-1.35234 13.4735,-0.96294c15.32457,1.30822 30.62421,3.002 45.92384,4.6459c3.69063,0.39323 7.42731,0.83634 11.01244,1.78202c4.47902,1.16819 7.30838,4.02057 6.87678,9.08656c-0.39131,4.52122 -3.99947,8.52068 -8.96763,9.04819c-3.26096,0.3472 -6.65427,-0.22059 -9.96126,-0.55628c-6.54493,-0.63685 -13.06684,-1.40605 -19.61177,-2.1177c-0.10742,1.00706 -0.20333,2.01412 -0.30883,3.02502z" fill-rule="evenodd"></path></g><path d="M170.91431,240.83096c-0.95527,-10.70361 3.24753,-19.87456 12.4204,-24.65474c-8.10827,-3.42209 -12.61031,-19.70193 -9.93632,-28.8537c0.70398,-2.39776 3.05763,-16.62704 18.89436,-26.3255c12.01758,13.53297 13.40445,23.07606 12.82898,33.96765c-0.727,13.98183 -11.25221,20.21601 -15.7274,22.58499c-8.83911,4.68235 -13.9895,11.4191 -13.21262,19.69617c0.11893,1.23149 0.3683,2.44763 0.65603,4.34858c0,0 14.59565,-0.56779 25.79799,11.66463c12.90187,14.07582 3.57171,31.5929 -12.99203,38.97609c2.6759,-2.6759 3.57171,-8.46697 3.04612,-10.31805c-1.61513,-5.66831 -5.20602,-9.74642 -11.07382,-10.65373c-8.21569,-1.26602 -16.54072,-1.81463 -24.81779,-2.70084c-9.45869,-1.01281 -18.90779,-2.05248 -28.81917,-3.14011c-0.44119,-9.89029 6.7003,-15.66601 12.36286,-19.43146c5.51677,-3.66953 12.13459,-5.52444 18.97876,-5.83136c2.99624,-3.53526 -2.8543,-9.32058 -6.61782,-12.02717c-17.46146,-12.55851 -18.2134,-31.4241 -1.40797,-47.07093c22.49292,16.9608 15.72931,38.77084 7.46567,46.25953c8.71442,7.7745 5.46498,12.9364 12.15377,13.50995z" fill-rule="evenodd"></path></g></g></svg>